<svg width="50" height="50" viewBox="0 0 50 50" fill="none" xmlns="http://www.w3.org/2000/svg">
<g clip-path="url(#clip0_1_43)">
<path d="M21.1456 26.6097L9.46889 9.69485L19.5525 9.67394L28.2207 18.3561L35.6813 9.64051L39.8692 9.63183L48.9749 18.8864L48.9557 9.63792C48.9459 4.8641 45.024 0.958435 40.2501 0.968332L9.6379 1.03179C4.86408 1.04169 0.958416 4.96358 0.968312 9.7374L1.0318 40.3621C1.0417 45.1359 4.96359 49.0416 9.73741 49.0317L18.2006 49.0141L9.35798 40.3698L21.1456 26.6097Z" fill="url(#paint0_linear_1_43)"/>
<path d="M49.0317 40.2626L48.9874 18.8739L39.8817 9.61934L35.6937 9.62802L28.2332 18.3436L19.5649 9.66145L9.46887 9.68239L21.1456 26.6097L9.35798 40.3698L18.2006 49.0141L40.3621 48.9682C45.1359 48.9583 49.0416 45.0364 49.0317 40.2626Z" fill="#161616"/>
<path d="M40.7056 40.3048L30.622 40.3257L23.0209 29.3105L13.5584 40.3611L9.37045 40.3697L21.1581 26.6096L9.46889 9.69485L19.5525 9.67394L26.741 20.0792L35.6937 9.64048L39.8817 9.6318L28.6163 22.7801L40.7181 40.3048L40.7056 40.3048ZM31.2676 39.0779L38.3348 39.0633L27.0331 22.6961L37.1546 10.8714L36.2572 10.8733L26.6331 22.1111L18.8944 10.9093L11.8272 10.9239L22.7038 26.6812L12.0601 39.1053L12.9575 39.1034L23.1039 27.2537L31.2551 39.0655L31.2676 39.0779ZM37.2368 38.4922L31.8148 38.5034L12.913 11.5947L18.3349 11.5835L37.2243 38.4922L37.2368 38.4922ZM32.4604 37.2557L34.8411 37.2507L17.6894 12.8313L15.3087 12.8362L32.4479 37.2557L32.4604 37.2557Z" fill="white"/>
</g>
<defs>
<linearGradient id="paint0_linear_1_43" x1="1.78238" y1="5.59756" x2="48.2051" y2="44.39" gradientUnits="userSpaceOnUse">
<stop stop-color="#646464"/>
<stop offset="0.72" stop-color="#1D1D1D"/>
<stop offset="1"/>
</linearGradient>
<clipPath id="clip0_1_43">
<rect width="48" height="48" fill="white" transform="translate(0.950302 1.0498) rotate(-0.11878)"/>
</clipPath>
</defs>
</svg>
