<svg width="50" height="49" viewBox="0 0 50 49" fill="none" xmlns="http://www.w3.org/2000/svg">
<g clip-path="url(#clip0_1_36)">
<path d="M49.0219 35.9577C49.0225 36.2205 49.0156 36.7905 49.0008 37.2309C48.9644 38.3082 48.8818 39.6986 48.754 40.3322C48.5619 41.2845 48.2707 42.1835 47.8902 42.9321C47.4401 43.8176 46.8651 44.6111 46.1814 45.2964C45.4992 45.9803 44.7088 46.5563 43.8265 47.0083C43.0756 47.3929 42.1722 47.6879 41.2153 47.8832C40.5884 48.0111 39.2089 48.0977 38.1385 48.138C37.6979 48.1547 37.1278 48.1638 36.8659 48.1643L13.2304 48.2095C12.9676 48.2101 12.3976 48.2032 11.9573 48.1883C10.8799 48.1519 9.48961 48.0694 8.85592 47.9416C7.90368 47.7494 7.00462 47.4583 6.25608 47.0778C5.37052 46.6276 4.577 46.0527 3.89172 45.369C3.2078 44.6868 2.63185 43.8964 2.17988 43.0141C1.79517 42.2631 1.50014 41.3597 1.30489 40.4029C1.17702 39.776 1.0904 38.3965 1.05007 37.3261C1.0335 36.8855 1.0244 36.3154 1.02385 36.0536L0.978603 12.4179C0.978059 12.1551 0.984893 11.5852 0.999777 11.1448C1.03622 10.0674 1.11869 8.67712 1.24652 8.04348C1.43866 7.09123 1.72976 6.19217 2.11029 5.44359C2.56047 4.55807 3.13543 3.7645 3.81909 3.07923C4.5013 2.39536 5.29173 1.81936 6.17406 1.36734C6.925 0.98272 7.82847 0.68769 8.7853 0.492441C9.41209 0.364532 10.7917 0.277906 11.862 0.237624C12.3027 0.221007 12.8728 0.211904 13.1346 0.211361L36.7702 0.166159C37.0331 0.165614 37.603 0.172448 38.0433 0.187332C39.1207 0.22377 40.511 0.306248 41.1447 0.434075C42.0969 0.62621 42.996 0.917316 43.7445 1.29784C44.6301 1.74802 45.4236 2.32299 46.1089 3.00665C46.7927 3.68886 47.3687 4.47924 47.8207 5.36162C48.2054 6.11256 48.5004 7.01598 48.6957 7.97281C48.8236 8.59964 48.9101 9.97918 48.9505 11.0496C48.9671 11.4903 48.9762 12.0603 48.9768 12.3222L49.0219 35.9577Z" fill="url(#paint0_linear_1_36)"/>
<path d="M37.6913 11.5168C34.4347 8.27101 30.1092 6.48785 25.5045 6.49557C16.0169 6.51524 8.31113 14.25 8.327 23.7377C8.33207 26.7705 9.13082 29.7292 10.6425 32.3355L8.21899 41.2576L17.3389 38.8458C19.856 40.2114 22.688 40.928 25.569 40.9232L25.5761 40.9232C35.0627 40.9035 42.7691 33.1678 42.7533 23.68C42.7456 19.0822 40.9479 14.7626 37.6913 11.5168ZM25.57 38.017L25.5642 38.017C22.997 38.0214 20.4776 37.3372 18.2783 36.0386L17.7552 35.7297L12.3433 37.1609L13.7777 31.8802L13.4363 31.3398C11.9995 29.0656 11.2376 26.4352 11.2332 23.7328C11.2199 15.8471 17.6247 9.41816 25.5162 9.4018C29.3375 9.39533 32.9328 10.8776 35.6396 13.5753C38.3463 16.273 39.8405 19.8634 39.847 23.685C39.8603 31.5714 33.4556 38.0007 25.57 38.017ZM33.3954 27.2891C32.9648 27.0748 30.8481 26.039 30.4536 25.8963C30.0591 25.7536 29.7722 25.6825 29.4863 26.1136C29.2005 26.5446 28.3783 27.5148 28.1279 27.8022C27.8776 28.0897 27.6268 28.1261 27.1963 27.9118C26.7657 27.6975 25.379 27.2463 23.7332 25.7849C22.4523 24.6476 21.5861 23.2413 21.3344 22.8113C21.0826 22.3814 21.3063 22.1483 21.5212 21.9334C21.7142 21.7404 21.9502 21.4304 22.1648 21.1789C22.3793 20.9274 22.4506 20.7478 22.5933 20.4606C22.7361 20.1733 22.6639 19.9224 22.5559 19.7074C22.448 19.4924 21.5834 17.3779 21.2232 16.5178C20.8724 15.6801 20.518 15.7943 20.254 15.7816C20.0033 15.7697 19.7163 15.7677 19.4296 15.7682C19.1429 15.7688 18.6772 15.8774 18.2839 16.3087C17.8905 16.7399 16.7816 17.7824 16.786 19.8987C16.7904 22.015 18.3357 24.0563 18.5514 24.3428C18.767 24.6293 21.5937 28.9664 25.9121 30.8198C26.9392 31.2606 27.7408 31.5236 28.3659 31.7204C29.3969 32.0454 30.3344 31.9974 31.0753 31.8852C31.9013 31.76 33.6177 30.8398 33.9741 29.8347C34.3304 28.8296 34.3286 27.9688 34.2207 27.7896C34.1128 27.6105 33.8259 27.5035 33.3954 27.2891Z" fill="white"/>
</g>
<defs>
<linearGradient id="paint0_linear_1_36" x1="24.9505" y1="0.186865" x2="25.05" y2="48.1889" gradientUnits="userSpaceOnUse">
<stop stop-color="#61FD7D"/>
<stop offset="1" stop-color="#2BB826"/>
</linearGradient>
<clipPath id="clip0_1_36">
<rect width="48" height="48" fill="white" transform="translate(0.950439 0.190777) rotate(-0.11878)"/>
</clipPath>
</defs>
</svg>
