<svg width="50" height="49" viewBox="0 0 50 49" fill="none" xmlns="http://www.w3.org/2000/svg">
<g clip-path="url(#clip0_7_60)">
<path d="M13.221 48.7136C11.3644 48.6967 9.52456 48.36 7.78227 47.7183C6.50998 47.251 5.3582 46.5053 4.41115 45.5356C3.43497 44.5945 2.68337 43.4455 2.21217 42.1741C1.56374 40.4345 1.2199 38.5963 1.19573 36.7399C1.04674 33.6541 1.01612 32.7285 0.999908 24.9088C0.983697 17.089 1.01331 16.1666 1.14526 13.0779C1.1642 11.2222 1.50084 9.38346 2.14058 7.64144C2.60878 6.36894 3.35455 5.2167 4.32371 4.26844C5.26557 3.29313 6.41478 2.54223 7.68622 2.07134C9.42584 1.42238 11.2643 1.07806 13.1208 1.05349C16.2076 0.905912 17.1346 0.875284 24.9501 0.859082C32.7656 0.842879 33.6923 0.872488 36.781 1.00444C38.6372 1.02322 40.4764 1.35986 42.2189 1.99975C43.4917 2.46598 44.6437 3.21185 45.59 4.18242C46.5648 5.12498 47.3157 6.27418 47.7875 7.5454C48.4367 9.28498 48.7812 11.1234 48.8059 12.98C48.9534 16.0682 48.9841 16.9928 49.0003 24.8102C49.0165 32.6276 48.9897 33.5524 48.8549 36.6411C48.8364 38.4975 48.4996 40.3369 47.8591 42.0794C47.3746 43.3431 46.6308 44.4913 45.6757 45.4502C44.7206 46.409 43.5753 47.1573 42.3135 47.6467C40.5739 48.2958 38.7355 48.6403 36.8789 48.665C33.7935 48.8126 32.8661 48.8432 25.0487 48.8595C17.2313 48.8757 16.3065 48.8503 13.2206 48.7141" fill="url(#paint0_radial_7_60)"/>
<path d="M13.221 48.7136C11.3644 48.6967 9.52456 48.36 7.78227 47.7183C6.50998 47.251 5.3582 46.5053 4.41115 45.5356C3.43497 44.5945 2.68337 43.4455 2.21217 42.1741C1.56374 40.4345 1.2199 38.5963 1.19573 36.7399C1.04674 33.6541 1.01612 32.7285 0.999908 24.9088C0.983697 17.089 1.01331 16.1666 1.14526 13.0779C1.1642 11.2222 1.50084 9.38346 2.14058 7.64144C2.60878 6.36894 3.35455 5.2167 4.32371 4.26844C5.26557 3.29313 6.41478 2.54223 7.68622 2.07134C9.42584 1.42238 11.2643 1.07806 13.1208 1.05349C16.2076 0.905912 17.1346 0.875284 24.9501 0.859082C32.7656 0.842879 33.6923 0.872488 36.781 1.00444C38.6372 1.02322 40.4764 1.35986 42.2189 1.99975C43.4917 2.46598 44.6437 3.21185 45.59 4.18242C46.5648 5.12498 47.3157 6.27418 47.7875 7.5454C48.4367 9.28498 48.7812 11.1234 48.8059 12.98C48.9534 16.0682 48.9841 16.9928 49.0003 24.8102C49.0165 32.6276 48.9897 33.5524 48.8549 36.6411C48.8364 38.4975 48.4996 40.3369 47.8591 42.0794C47.3746 43.3431 46.6308 44.4913 45.6757 45.4502C44.7206 46.409 43.5753 47.1573 42.3135 47.6467C40.5739 48.2958 38.7355 48.6403 36.8789 48.665C33.7935 48.8126 32.8661 48.8432 25.0487 48.8595C17.2313 48.8757 16.3065 48.8503 13.2206 48.7141" fill="url(#paint1_radial_7_60)"/>
<path d="M19.1069 24.9734C19.1046 23.7977 19.4509 22.6478 20.1021 21.669C20.7533 20.6902 21.6801 19.9265 22.7654 19.4745C23.8506 19.0224 25.0456 18.9024 26.1991 19.1295C27.3525 19.3565 28.4128 19.9206 29.2457 20.7503C30.0786 21.5799 30.6468 22.638 30.8784 23.7906C31.11 24.9432 30.9946 26.1385 30.5468 27.2256C30.099 28.3126 29.3389 29.2424 28.3627 29.8974C27.3865 30.5524 26.2379 30.9033 25.0623 30.9055C23.4859 30.9085 21.9729 30.2852 20.8561 29.1728C19.7392 28.0603 19.1101 26.5497 19.1069 24.9734ZM15.8933 24.98C15.897 26.791 16.4377 28.5603 17.447 30.064C18.4563 31.5677 19.8888 32.7384 21.5634 33.428C23.238 34.1176 25.0795 34.2951 26.8549 33.9381C28.6304 33.5811 30.2602 32.7056 31.5381 31.4224C32.8161 30.1391 33.6848 28.5058 34.0344 26.7288C34.384 24.9519 34.1989 23.1111 33.5024 21.4394C32.8058 19.7677 31.6292 18.34 30.1213 17.337C28.6135 16.334 26.842 15.8006 25.031 15.8044C23.8285 15.8068 22.6382 16.0461 21.5282 16.5085C20.4182 16.971 19.4102 17.6475 18.5616 18.4996C17.7131 19.3516 17.0407 20.3625 16.5829 21.4744C16.1251 22.5863 15.8907 23.7775 15.8933 24.98ZM32.4095 15.4262C32.4102 15.8494 32.5364 16.2629 32.7721 16.6144C33.0077 16.9659 33.3424 17.2396 33.7336 17.401C34.1249 17.5623 34.5552 17.604 34.9701 17.5207C35.3851 17.4375 35.766 17.233 36.0648 16.9333C36.3635 16.6336 36.5667 16.252 36.6486 15.8368C36.7305 15.4216 36.6874 14.9914 36.5248 14.6007C36.3622 14.2099 36.0874 13.8762 35.7351 13.6417C35.3829 13.4071 34.969 13.2823 34.5458 13.283C33.9785 13.2844 33.435 13.5109 33.0346 13.9128C32.6343 14.3146 32.4098 14.859 32.4104 15.4262M17.8768 39.4912C16.746 39.4812 15.6253 39.2765 14.564 38.8863C13.7942 38.5915 13.0947 38.1387 12.5105 37.5572C11.9263 36.9756 11.4704 36.2782 11.172 35.5098C10.7772 34.4501 10.568 33.3303 10.5534 32.1996C10.4629 30.3202 10.4448 29.7556 10.4349 24.9937C10.4251 20.2318 10.4427 19.6685 10.5235 17.7869C10.5349 16.6562 10.7395 15.5358 11.1284 14.4741C11.4233 13.7041 11.8762 13.0045 12.458 12.4202C13.0398 11.836 13.7376 11.3802 14.5063 11.0822C15.566 10.6874 16.6858 10.4781 17.8166 10.4635C19.6959 10.3731 20.2606 10.3549 25.0206 10.3451C29.7806 10.3352 30.3458 10.3524 32.2274 10.4341C33.358 10.4455 34.4784 10.6501 35.5402 11.039C36.3101 11.3339 37.0098 11.7868 37.594 12.3686C38.1782 12.9504 38.6341 13.6482 38.9321 14.4169C39.3269 15.4767 39.5361 16.5965 39.5507 17.7272C39.6412 19.6094 39.6593 20.1712 39.6692 24.9336C39.6791 29.6959 39.6628 30.2588 39.5806 32.1403C39.5698 33.2711 39.3652 34.3916 38.9757 35.4531C38.6805 36.2228 38.2275 36.9221 37.6457 37.506C37.0639 38.09 36.3663 38.5456 35.5978 38.8437C34.5381 39.2384 33.4183 39.4477 32.2876 39.4623C30.4082 39.5528 29.8435 39.5709 25.0812 39.5808C20.3189 39.5907 19.756 39.5744 17.8768 39.4922M17.6622 7.25303C16.1826 7.28519 14.7193 7.56827 13.3345 8.09023C12.1507 8.55074 11.0763 9.25354 10.18 10.1535C9.2837 11.0536 8.58537 12.1309 8.12977 13.3166C7.61363 14.7035 7.33662 16.168 7.31052 17.6477C7.22646 19.549 7.20796 20.1571 7.218 24.9999C7.22804 29.8427 7.24953 30.4502 7.341 32.3517C7.37323 33.8312 7.65631 35.2945 8.1782 36.6793C8.63874 37.8631 9.34154 38.9375 10.2415 39.8338C11.1415 40.7301 12.2189 41.4284 13.4045 41.884C14.7915 42.4 16.256 42.677 17.7357 42.7033C19.638 42.786 20.245 42.8059 25.0879 42.7958C29.9307 42.7858 30.5382 42.7643 32.4396 42.6728C33.9192 42.6405 35.3825 42.3574 36.7673 41.8356C37.951 41.3751 39.0255 40.6723 39.9218 39.7723C40.8181 38.8723 41.5164 37.7949 41.972 36.6093C42.4888 35.2225 42.7659 33.7579 42.7913 32.2782C42.8739 30.3754 42.8924 29.7688 42.8824 24.926C42.8723 20.0831 42.8509 19.4757 42.7608 17.5742C42.7286 16.0947 42.4455 14.6313 41.9236 13.2465C41.4631 12.063 40.7605 10.9887 39.8607 10.0924C38.961 9.19617 37.884 8.49771 36.6987 8.04179C35.3118 7.52524 33.8472 7.24822 32.3675 7.22254C30.4657 7.13943 29.8581 7.11998 25.0163 7.13002C20.1744 7.14006 19.5655 7.16155 17.6631 7.25303" fill="white"/>
</g>
<defs>
<radialGradient id="paint0_radial_7_60" cx="0" cy="0" r="1" gradientUnits="userSpaceOnUse" gradientTransform="translate(4.15383 47.851) rotate(-0.11878) scale(60.9421)">
<stop offset="0.09" stop-color="#FA8F21"/>
<stop offset="0.78" stop-color="#D82D7E"/>
</radialGradient>
<radialGradient id="paint1_radial_7_60" cx="0" cy="0" r="1" gradientUnits="userSpaceOnUse" gradientTransform="translate(34.2922 46.2469) rotate(-0.11878) scale(53.6296)">
<stop offset="0.64" stop-color="#8C3AAA" stop-opacity="0"/>
<stop offset="1" stop-color="#8C3AAA"/>
</radialGradient>
<clipPath id="clip0_7_60">
<rect width="48" height="48" fill="white" transform="translate(0.950153 0.908836) rotate(-0.11878)"/>
</clipPath>
</defs>
</svg>
