<svg width="50" height="49" viewBox="0 0 50 49" fill="none" xmlns="http://www.w3.org/2000/svg">
<path d="M42.9499 0.680794L6.95 0.755426C3.641 0.762285 0.955587 3.45886 0.962447 6.76785L1.03708 42.7678C1.04394 46.0768 3.74051 48.7622 7.0495 48.7553L43.0494 48.6807C46.3584 48.6738 49.0438 45.9773 49.037 42.6683L48.9623 6.66834C48.9555 3.35935 46.2589 0.673934 42.9499 0.680794Z" fill="#1976D2"/>
<path fill-rule="evenodd" clip-rule="evenodd" d="M41.4997 24.6839L33.9997 24.6994L33.9873 18.6994C33.9838 17.0434 35.3281 17.1966 36.9841 17.1932L39.9841 17.187L39.9686 9.68699L33.9686 9.69943C31.5817 9.70438 29.2944 10.6573 27.6101 12.3487C25.9258 14.04 24.9823 16.3311 24.9873 18.7181L24.9997 24.7181L18.9997 24.7305L19.0153 32.2305L25.0153 32.218L25.0495 48.718L34.0494 48.6993L34.0152 32.1994L38.5152 32.1901L41.4997 24.6839Z" fill="#FAFAFA"/>
</svg>
