<svg width="50" height="49" viewBox="0 0 50 49" fill="none" xmlns="http://www.w3.org/2000/svg">
<g clip-path="url(#clip0_7_44)">
<path d="M40.2629 0.25025L9.63819 0.313739C4.84016 0.323685 0.958656 4.22132 0.968602 9.01934L1.03209 39.6441C1.04204 44.4421 4.93967 48.3236 9.7377 48.3136L40.3624 48.2501C45.1604 48.2402 49.0419 44.3426 49.032 39.5445L48.9685 8.91983C48.9586 4.12181 45.0609 0.240303 40.2629 0.25025Z" fill="url(#paint0_linear_7_44)"/>
<path d="M49.032 39.5445L49.0019 25.0361C46.1166 22.113 43.1068 19.2898 40.2837 16.2918C39.7228 16.293 39.1618 16.2318 38.6256 16.1207L38.6349 20.5954C35.6808 20.6015 32.9492 19.6724 30.7148 18.0816L30.7388 29.6733C30.7508 35.4692 26.0616 40.178 20.2532 40.19C18.0844 40.1945 16.0763 39.5505 14.4038 38.4322C17.7636 41.7532 20.9861 44.9873 24.296 48.2835L40.3749 48.2501C45.1487 48.2402 49.0544 44.3183 49.0445 39.5445L49.032 39.5445Z" fill="url(#paint1_linear_7_44)"/>
<g style="mix-blend-mode:multiply">
<path d="M49.032 39.5445L49.0019 25.0361C46.1166 22.113 43.1068 19.2898 40.2837 16.2918C39.7228 16.293 39.1618 16.2318 38.6256 16.1207L38.6349 20.5954C35.6808 20.6015 32.9492 19.6724 30.7148 18.0816L30.7388 29.6733C30.7508 35.4692 26.0616 40.178 20.2532 40.19C18.0844 40.1945 16.0763 39.5505 14.4038 38.4322C17.7636 41.7532 20.9861 44.9873 24.296 48.2835L40.3749 48.2501C45.1487 48.2402 49.0544 44.3183 49.0445 39.5445L49.032 39.5445Z" fill="#FF1753"/>
</g>
<path opacity="0.8" fill-rule="evenodd" clip-rule="evenodd" d="M34.4077 13.7239C33.2584 12.4798 32.5072 10.8735 32.3414 9.09141L32.3399 8.35602L30.7694 8.35928C31.173 10.6145 32.5231 12.5561 34.4077 13.7239ZM18.0466 33.9749C17.4092 33.1411 17.0581 32.1198 17.0559 31.0728C17.0504 28.4179 19.2023 26.2696 21.8572 26.2641C22.3557 26.263 22.842 26.3368 23.3159 26.4854L23.3039 20.677C22.7553 20.6034 22.1943 20.5672 21.6459 20.5808L21.6553 25.1053C21.1814 24.9567 20.6951 24.8829 20.1965 24.884C17.5416 24.8895 15.3898 27.0503 15.3953 29.6927C15.3992 31.5623 16.4745 33.1929 18.0466 33.9749Z" fill="#FF1753"/>
<path fill-rule="evenodd" clip-rule="evenodd" d="M30.7023 18.0816C32.9367 19.6724 35.6808 20.6015 38.6224 20.5954L38.6131 16.1208C36.9671 15.7752 35.507 14.9182 34.4077 13.7239C32.5231 12.5561 31.173 10.6269 30.7694 8.35927L26.6313 8.36785L26.6783 31.0528C26.6838 33.6952 24.5319 35.8436 21.877 35.8491C20.319 35.8523 18.9339 35.1073 18.0466 33.9624C16.4744 33.1804 15.3991 31.5499 15.3953 29.6802C15.3898 27.0253 17.5416 24.877 20.1965 24.8715C20.7076 24.8704 21.1938 24.9442 21.6553 25.0928L21.6459 20.5683C15.95 20.6923 11.3728 25.3634 11.3847 31.0845C11.3906 33.9388 12.5427 36.529 14.3913 38.4198C16.0638 39.5381 18.0844 40.1821 20.2407 40.1776C26.0366 40.1656 30.7384 35.4568 30.7263 29.6609L30.7023 18.0691L30.7023 18.0816Z" fill="white"/>
<path fill-rule="evenodd" clip-rule="evenodd" d="M38.6131 16.1208L38.6106 14.9117C37.1274 14.9148 35.6682 14.5065 34.4077 13.7239C35.532 14.943 37.0045 15.7875 38.6131 16.1208ZM30.7694 8.35928C30.7316 8.14746 30.7062 7.92316 30.6808 7.71131L30.6793 6.97592L24.9582 6.98778L25.0052 29.6728C25.0107 32.3152 22.8588 34.4635 20.204 34.469C19.4312 34.4706 18.6954 34.2852 18.0466 33.9624C18.9214 35.1073 20.319 35.8523 21.877 35.8491C24.5195 35.8436 26.6713 33.6953 26.6783 31.0528L26.6313 8.36785L30.7694 8.35928ZM21.646 20.5808L21.6433 19.2969C21.1695 19.2356 20.6833 19.1992 20.1972 19.2002C14.3889 19.2123 9.69959 23.921 9.71161 29.7169C9.71915 33.3565 11.5705 36.556 14.3913 38.4322C12.5302 36.5415 11.3906 33.9513 11.3847 31.097C11.3728 25.3759 15.95 20.7047 21.646 20.5808Z" fill="#00C9D0"/>
<path opacity="0.8" fill-rule="evenodd" clip-rule="evenodd" d="M32.363 19.4617C34.5974 21.0525 37.3414 21.9816 40.283 21.9755L40.2712 16.2918C39.7103 16.293 39.1493 16.2318 38.6131 16.1208L38.6224 20.5954C35.6684 20.6015 32.9367 19.6724 30.7023 18.0816L30.7264 29.6734C30.7384 35.4692 26.0491 40.178 20.2407 40.1901C18.072 40.1946 16.0639 39.5506 14.3913 38.4322C16.3024 40.3727 18.9598 41.5763 21.9138 41.5701C27.7222 41.5581 32.4115 36.8493 32.3994 31.0534L32.3754 19.4617L32.363 19.4617Z" fill="#FF1753"/>
</g>
<defs>
<linearGradient id="paint0_linear_7_44" x1="5.50176" y1="1.14496" x2="44.4863" y2="47.4065" gradientUnits="userSpaceOnUse">
<stop stop-color="#323232"/>
<stop offset="1"/>
</linearGradient>
<linearGradient id="paint1_linear_7_44" x1="5.75063" y1="0.945012" x2="44.7352" y2="47.2065" gradientUnits="userSpaceOnUse">
<stop stop-color="#646464"/>
<stop offset="0.43" stop-color="#1D1D1D"/>
<stop offset="0.6"/>
</linearGradient>
<clipPath id="clip0_7_44">
<rect width="48" height="48" fill="white" transform="translate(0.950592 0.331749) rotate(-0.11878)"/>
</clipPath>
</defs>
</svg>
